<?xml version="1.0" encoding="utf-8"?>
<!-- Svg Vector Icons : http://www.onlinewebfonts.com/icon -->
<!DOCTYPE svg PUBLIC "-//W3C//DTD SVG 1.1//EN" "http://www.w3.org/Graphics/SVG/1.1/DTD/svg11.dtd">
<svg version="1.1" xmlns="http://www.w3.org/2000/svg" xmlns:xlink="http://www.w3.org/1999/xlink" x="0px" y="0px" viewBox="0 0 1000 1000" enable-background="new 0 0 1000 1000" xml:space="preserve">
<metadata> Svg Vector Icons : http://www.onlinewebfonts.com/icon </metadata>
<g><path d="M817.9,420.9h-70.2V257.7C747.7,121.1,636.7,10,500,10c-136.6,0-247.8,111.1-247.8,247.7v163.1h-70.1c-33.8,0-61.2,27.4-61.2,61.2v446.7c0,33.9,27.4,61.3,61.2,61.3h635.8c33.8,0,61.1-27.4,61.1-61.3V482.1C879,448.3,851.7,420.9,817.9,420.9L817.9,420.9z M534.4,717.1v97.5c0,4.4-3.6,8-8,8h-52.6c-4.5,0-8.1-3.7-8.1-8v-97.5c-24.7-12.6-41.8-38-41.8-67.7c0-42,34.1-76.2,76.1-76.2c42.1,0,76.2,34.2,76.2,76.2C576.2,679.1,559.1,704.4,534.4,717.1L534.4,717.1z M652.7,420.9H347.4V261.8c0-84.2,68.5-152.7,152.7-152.7c84.2,0,152.6,68.5,152.6,152.7V420.9L652.7,420.9z"/></g>
</svg>